<?xml version="1.0" encoding="utf-8"?>
<svg viewBox="105.296 15.551 156.28 30.218" style="background: transparent;" xmlns="http://www.w3.org/2000/svg">
  <defs>
    <filter id="editing-extrusion" x="-100%" y="-100%" width="300%" height="300%">
      <feFlood result="color1" flood-color="#dad69f"/>
      <feConvolveMatrix order="5,5" divisor="1" kernelMatrix="1 0 0 0 0 0 1 0 0 0 0 0 1 0 0 0 0 0 1 0 0 0 0 0 1" in="SourceAlpha" result="extrude"/>
      <feComposite in="color1" in2="extrude" result="comp-extrude" operator="in"/>
      <feOffset dx="2.5" dy="2.5" in="comp-extrude" result="offset-extrude"/>
      <feMerge>
        <feMergeNode in="offset-extrude"/>
        <feMergeNode in="SourceGraphic"/>
      </feMerge>
    </filter>
    <style>text {
  font-size: 64px;
  font-family: Arial Black;
  dominant-baseline: central;
  text-anchor: middle;
}</style>
  </defs>
  <g filter="url(#editing-extrusion)" transform="matrix(0.534939, 0, 0, 0.475662, 27.656784, -8.770188)" style="">
    <g transform="matrix(1, 0, 0, 1, 148.063583, 96.470001)">
      <path d="M22.91 1.28L22.91 1.28Q17.47 1.28 12.96-1.31L12.96-1.31L12.96-1.31Q8.45-3.90 5.79-8.70L5.79-8.70L5.79-8.70Q3.14-13.50 3.14-19.90L3.14-19.90L3.14-19.90Q3.14-26.37 5.70-31.30L5.70-31.30L5.70-31.30Q8.26-36.22 12.99-38.94L12.99-38.94L12.99-38.94Q17.73-41.66 24.06-41.66L24.06-41.66L24.06-41.66Q29.57-41.66 33.86-39.46L33.86-39.46L33.86-39.46Q38.14-37.25 38.14-32.64L38.14-32.64L38.14-32.64Q38.21-29.76 36.42-27.74L36.42-27.74L36.42-27.74Q34.62-25.73 31.62-25.73L31.62-25.73L31.62-25.73Q30.46-25.73 29.66-26.14L29.66-26.14L29.66-26.14Q28.86-26.56 28.48-27.14L28.48-27.14L28.48-27.14Q28.10-27.71 28.16-28.03L28.16-28.03L28.16-28.03Q28.16-28.16 29.06-28.74L29.06-28.74L29.06-28.74Q29.95-29.31 30.66-30.34L30.66-30.34L30.66-30.34Q31.36-31.36 31.36-32.83L31.36-32.83L31.36-32.83Q31.36-35.71 29.41-37.41L29.41-37.41L29.41-37.41Q27.46-39.10 24-39.10L24-39.10L24-39.10Q20.10-39.10 17.06-36.90L17.06-36.90L17.06-36.90Q14.02-34.69 12.32-30.43L12.32-30.43L12.32-30.43Q10.62-26.18 10.62-20.29L10.62-20.29L10.62-20.29Q10.62-15.17 12.45-10.98L12.45-10.98L12.45-10.98Q14.27-6.78 17.60-4.32L17.60-4.32L17.60-4.32Q20.93-1.86 25.22-1.86L25.22-1.86L25.22-1.86Q28.67-1.86 31.14-3.30L31.14-3.30L31.14-3.30Q33.60-4.74 35.58-7.94L35.58-7.94L35.58-7.94Q35.90-8.51 36.48-8.51L36.48-8.51L36.48-8.51Q36.99-8.51 37.63-8.13L37.63-8.13L37.63-8.13Q38.66-7.42 38.66-6.72L38.66-6.72L38.66-6.72Q38.66-6.34 38.40-6.08L38.40-6.08L38.40-6.08Q35.97-3.01 33.82-1.44L33.82-1.44L33.82-1.44Q31.68 0.13 29.18 0.70L29.18 0.70L29.18 0.70Q26.69 1.28 22.91 1.28L22.91 1.28ZM44.80 0.19L44.80 0.19Q44.22 0.19 43.94-0.22L43.94-0.22L43.94-0.22Q43.65-0.64 43.65-1.22L43.65-1.22L43.65-1.22Q43.71-2.18 44.03-2.37L44.03-2.37L44.03-2.37Q44.35-2.56 45.25-2.56L45.25-2.56L45.25-2.56Q47.10-2.56 48-3.23L48-3.23L48-3.23Q48.90-3.90 49.12-4.90L49.12-4.90L49.12-4.90Q49.34-5.89 49.41-7.49L49.41-7.49L49.41-32.90L49.41-32.90Q49.34-34.50 49.12-35.49L49.12-35.49L49.12-35.49Q48.90-36.48 48-37.15L48-37.15L48-37.15Q47.10-37.82 45.25-37.82L45.25-37.82L44.86-37.82L44.86-37.82Q44.22-37.82 43.97-38.05L43.97-38.05L43.97-38.05Q43.71-38.27 43.65-39.17L43.65-39.17L43.65-39.17Q43.65-39.74 43.94-40.16L43.94-40.16L43.94-40.16Q44.22-40.58 44.80-40.58L44.80-40.58L44.80-40.58Q48.96-40.38 52.35-40.38L52.35-40.38L52.35-40.38Q56.19-40.38 60.35-40.58L60.35-40.58L60.35-40.58Q60.93-40.58 61.22-40.16L61.22-40.16L61.22-40.16Q61.50-39.74 61.50-39.17L61.50-39.17L61.50-39.17Q61.44-38.21 61.12-38.02L61.12-38.02L61.12-38.02Q60.80-37.82 59.90-37.82L59.90-37.82L59.90-37.82Q58.05-37.82 57.15-37.15L57.15-37.15L57.15-37.15Q56.26-36.48 56.03-35.49L56.03-35.49L56.03-35.49Q55.81-34.50 55.74-32.90L55.74-32.90L55.74-21.57L75.84-21.57L75.84-32.90L75.84-32.90Q75.78-34.50 75.55-35.49L75.55-35.49L75.55-35.49Q75.33-36.48 74.43-37.15L74.43-37.15L74.43-37.15Q73.54-37.82 71.68-37.82L71.68-37.82L71.30-37.82L71.30-37.82Q70.66-37.82 70.37-38.05L70.37-38.05L70.37-38.05Q70.08-38.27 70.02-39.17L70.02-39.17L70.02-39.17Q70.02-39.74 70.34-40.16L70.34-40.16L70.34-40.16Q70.66-40.58 71.17-40.58L71.17-40.58L71.17-40.58Q75.33-40.38 79.17-40.38L79.17-40.38L79.17-40.38Q82.69-40.38 86.78-40.58L86.78-40.58L86.78-40.58Q87.36-40.58 87.65-40.16L87.65-40.16L87.65-40.16Q87.94-39.74 87.94-39.17L87.94-39.17L87.94-39.17Q87.87-38.21 87.52-38.02L87.52-38.02L87.52-38.02Q87.17-37.82 86.34-37.82L86.34-37.82L86.34-37.82Q84.48-37.82 83.55-37.15L83.55-37.15L83.55-37.15Q82.62-36.48 82.40-35.49L82.40-35.49L82.40-35.49Q82.18-34.50 82.11-32.90L82.11-32.90L82.11-7.49L82.11-7.49Q82.18-5.89 82.40-4.90L82.40-4.90L82.40-4.90Q82.62-3.90 83.55-3.23L83.55-3.23L83.55-3.23Q84.48-2.56 86.34-2.56L86.34-2.56L86.72-2.56L86.72-2.56Q87.30-2.56 87.58-2.34L87.58-2.34L87.58-2.34Q87.87-2.11 87.94-1.22L87.94-1.22L87.94-1.22Q87.94-0.64 87.65-0.22L87.65-0.22L87.65-0.22Q87.36 0.19 86.78 0.19L86.78 0.19L86.78 0.19Q82.69 0 79.10 0L79.10 0L79.10 0Q75.33 0 71.17 0.19L71.17 0.19L71.17 0.19Q70.66 0.19 70.34-0.22L70.34-0.22L70.34-0.22Q70.02-0.64 70.02-1.22L70.02-1.22L70.02-1.22Q70.08-2.18 70.43-2.37L70.43-2.37L70.43-2.37Q70.78-2.56 71.68-2.56L71.68-2.56L71.68-2.56Q73.54-2.56 74.43-3.23L74.43-3.23L74.43-3.23Q75.33-3.90 75.55-4.90L75.55-4.90L75.55-4.90Q75.78-5.89 75.84-7.49L75.84-7.49L75.84-18.82L55.74-18.82L55.74-7.49L55.74-7.49Q55.81-5.89 56.03-4.90L56.03-4.90L56.03-4.90Q56.26-3.90 57.15-3.23L57.15-3.23L57.15-3.23Q58.05-2.56 59.90-2.56L59.90-2.56L60.29-2.56L60.29-2.56Q60.93-2.56 61.18-2.34L61.18-2.34L61.18-2.34Q61.44-2.11 61.50-1.22L61.50-1.22L61.50-1.22Q61.50-0.64 61.22-0.22L61.22-0.22L61.22-0.22Q60.93 0.19 60.35 0.19L60.35 0.19L60.35 0.19Q56.26 0 52.42 0L52.42 0L52.42 0Q48.96 0 44.80 0.19L44.80 0.19ZM94.46 0.19L94.46 0.19Q93.95 0.19 93.66-0.22L93.66-0.22L93.66-0.22Q93.38-0.64 93.38-1.22L93.38-1.22L93.38-1.22Q93.44-2.18 93.76-2.37L93.76-2.37L93.76-2.37Q94.08-2.56 94.98-2.56L94.98-2.56L94.98-2.56Q96.83-2.56 97.73-3.23L97.73-3.23L97.73-3.23Q98.62-3.90 98.85-4.90L98.85-4.90L98.85-4.90Q99.07-5.89 99.14-7.49L99.14-7.49L99.14-32.90L99.14-32.90Q99.07-34.50 98.85-35.49L98.85-35.49L98.85-35.49Q98.62-36.48 97.73-37.15L97.73-37.15L97.73-37.15Q96.83-37.82 94.98-37.82L94.98-37.82L94.59-37.82L94.59-37.82Q93.95-37.82 93.70-38.05L93.70-38.05L93.70-38.05Q93.44-38.27 93.38-39.17L93.38-39.17L93.38-39.17Q93.38-39.74 93.66-40.16L93.66-40.16L93.66-40.16Q93.95-40.58 94.46-40.58L94.46-40.58L94.46-40.58Q98.69-40.38 102.08-40.38L102.08-40.38L122.18-40.38L122.18-40.38Q123.84-40.38 123.84-38.85L123.84-38.85L124.03-29.89L124.03-29.89Q124.03-29.31 123.46-28.96L123.46-28.96L123.46-28.96Q122.88-28.61 122.30-28.61L122.30-28.61L122.30-28.61Q121.54-28.61 120.96-28.90L120.96-28.90L120.96-28.90Q120.38-29.18 120.32-29.76L120.32-29.76L120.32-29.76Q119.81-32.90 119.20-34.53L119.20-34.53L119.20-34.53Q118.59-36.16 117.41-36.96L117.41-36.96L117.41-36.96Q116.22-37.76 114.05-37.82L114.05-37.82L105.47-37.82L105.47-21.57L117.06-21.57L117.06-21.57Q117.50-21.50 117.76-21.09L117.76-21.09L117.76-21.09Q118.02-20.67 118.02-20.10L118.02-20.10L118.02-20.10Q118.02-19.58 117.76-19.20L117.76-19.20L117.76-19.20Q117.50-18.82 117.06-18.82L117.06-18.82L105.47-18.82L105.47-6.72L105.47-6.72Q105.60-5.38 105.79-4.58L105.79-4.58L105.79-4.58Q105.98-3.78 106.94-3.14L106.94-3.14L106.94-3.14Q107.90-2.50 109.95-2.56L109.95-2.56L115.84-2.56L115.84-2.56Q118.08-2.62 119.23-3.30L119.23-3.30L119.23-3.30Q120.38-3.97 121.06-5.38L121.06-5.38L121.06-5.38Q121.73-6.78 122.69-9.98L122.69-9.98L122.69-9.98Q123.14-11.14 124.86-10.88L124.86-10.88L124.86-10.88Q125.50-10.75 125.98-10.37L125.98-10.37L125.98-10.37Q126.46-9.98 126.40-9.41L126.40-9.41L125.12-1.34L125.12-1.34Q124.93-0.51 124.54-0.26L124.54-0.26L124.54-0.26Q124.16 0 123.26 0L123.26 0L102.14 0L102.14 0Q98.69 0 94.46 0.19L94.46 0.19ZM145.60 1.28L145.60 1.28Q138.88 1.28 135.33-1.06L135.33-1.06L135.33-1.06Q131.78-3.39 131.78-7.94L131.78-7.94L131.78-7.94Q131.78-10.24 133.34-11.74L133.34-11.74L133.34-11.74Q134.91-13.25 137.41-13.25L137.41-13.25L137.41-13.25Q138.88-13.18 139.65-12.51L139.65-12.51L139.65-12.51Q140.42-11.84 140.42-11.26L140.42-11.26L140.42-11.26Q140.42-11.20 139.78-10.82L139.78-10.82L139.78-10.82Q139.14-10.43 138.62-9.66L138.62-9.66L138.62-9.66Q138.11-8.90 138.11-7.55L138.11-7.55L138.11-7.55Q138.11-4.54 139.94-2.91L139.94-2.91L139.94-2.91Q141.76-1.28 145.60-1.28L145.60-1.28L145.60-1.28Q148.22-1.28 150.21-2.30L150.21-2.30L150.21-2.30Q152.19-3.33 153.25-5.02L153.25-5.02L153.25-5.02Q154.30-6.72 154.30-8.58L154.30-8.58L154.30-8.58Q154.30-10.88 152.99-12.54L152.99-12.54L152.99-12.54Q151.68-14.21 149.76-15.33L149.76-15.33L149.76-15.33Q147.84-16.45 144.51-17.92L144.51-17.92L144.51-17.92Q140.67-19.65 138.30-21.06L138.30-21.06L138.30-21.06Q135.94-22.46 134.27-24.80L134.27-24.80L134.27-24.80Q132.61-27.14 132.61-30.59L132.61-30.59L132.61-30.59Q132.61-36.16 136.42-38.91L136.42-38.91L136.42-38.91Q140.22-41.66 146.43-41.66L146.43-41.66L146.43-41.66Q151.30-41.66 154.91-39.62L154.91-39.62L154.91-39.62Q158.53-37.57 158.53-33.60L158.53-33.60L158.53-33.60Q158.53-31.30 156.96-29.79L156.96-29.79L156.96-29.79Q155.39-28.29 152.90-28.29L152.90-28.29L152.90-28.29Q151.42-28.35 150.66-29.02L150.66-29.02L150.66-29.02Q149.89-29.70 149.89-30.27L149.89-30.27L149.89-30.27Q149.89-30.34 150.75-30.72L150.75-30.72L150.75-30.72Q151.62-31.10 152.29-31.87L152.29-31.87L152.29-31.87Q152.96-32.64 152.96-33.98L152.96-33.98L152.96-33.98Q152.96-36.35 151.14-37.70L151.14-37.70L151.14-37.70Q149.31-39.04 146.50-39.04L146.50-39.04L146.50-39.04Q142.59-39.04 140.58-37.22L140.58-37.22L140.58-37.22Q138.56-35.39 138.56-32.70L138.56-32.70L138.56-32.70Q138.56-30.46 139.78-28.96L139.78-28.96L139.78-28.96Q140.99-27.46 143.68-25.98L143.68-25.98L143.68-25.98Q145.86-24.83 148.42-23.68L148.42-23.68L148.42-23.68Q152.51-21.82 154.91-20.29L154.91-20.29L154.91-20.29Q157.31-18.75 158.94-16.26L158.94-16.26L158.94-16.26Q160.58-13.76 160.58-10.05L160.58-10.05L160.58-10.05Q160.58-6.85 158.56-4.26L158.56-4.26L158.56-4.26Q156.54-1.66 153.12-0.19L153.12-0.19L153.12-0.19Q149.70 1.28 145.60 1.28L145.60 1.28ZM180.48 1.28L180.48 1.28Q173.76 1.28 170.21-1.06L170.21-1.06L170.21-1.06Q166.66-3.39 166.66-7.94L166.66-7.94L166.66-7.94Q166.66-10.24 168.22-11.74L168.22-11.74L168.22-11.74Q169.79-13.25 172.29-13.25L172.29-13.25L172.29-13.25Q173.76-13.18 174.53-12.51L174.53-12.51L174.53-12.51Q175.30-11.84 175.30-11.26L175.30-11.26L175.30-11.26Q175.30-11.20 174.66-10.82L174.66-10.82L174.66-10.82Q174.02-10.43 173.50-9.66L173.50-9.66L173.50-9.66Q172.99-8.90 172.99-7.55L172.99-7.55L172.99-7.55Q172.99-4.54 174.82-2.91L174.82-2.91L174.82-2.91Q176.64-1.28 180.48-1.28L180.48-1.28L180.48-1.28Q183.10-1.28 185.09-2.30L185.09-2.30L185.09-2.30Q187.07-3.33 188.13-5.02L188.13-5.02L188.13-5.02Q189.18-6.72 189.18-8.58L189.18-8.58L189.18-8.58Q189.18-10.88 187.87-12.54L187.87-12.54L187.87-12.54Q186.56-14.21 184.64-15.33L184.64-15.33L184.64-15.33Q182.72-16.45 179.39-17.92L179.39-17.92L179.39-17.92Q175.55-19.65 173.18-21.06L173.18-21.06L173.18-21.06Q170.82-22.46 169.15-24.80L169.15-24.80L169.15-24.80Q167.49-27.14 167.49-30.59L167.49-30.59L167.49-30.59Q167.49-36.16 171.30-38.91L171.30-38.91L171.30-38.91Q175.10-41.66 181.31-41.66L181.31-41.66L181.31-41.66Q186.18-41.66 189.79-39.62L189.79-39.62L189.79-39.62Q193.41-37.57 193.41-33.60L193.41-33.60L193.41-33.60Q193.41-31.30 191.84-29.79L191.84-29.79L191.84-29.79Q190.27-28.29 187.78-28.29L187.78-28.29L187.78-28.29Q186.30-28.35 185.54-29.02L185.54-29.02L185.54-29.02Q184.77-29.70 184.77-30.27L184.77-30.27L184.77-30.27Q184.77-30.34 185.63-30.72L185.63-30.72L185.63-30.72Q186.50-31.10 187.17-31.87L187.17-31.87L187.17-31.87Q187.84-32.64 187.84-33.98L187.84-33.98L187.84-33.98Q187.84-36.35 186.02-37.70L186.02-37.70L186.02-37.70Q184.19-39.04 181.38-39.04L181.38-39.04L181.38-39.04Q177.47-39.04 175.46-37.22L175.46-37.22L175.46-37.22Q173.44-35.39 173.44-32.70L173.44-32.70L173.44-32.70Q173.44-30.46 174.66-28.96L174.66-28.96L174.66-28.96Q175.87-27.46 178.56-25.98L178.56-25.98L178.56-25.98Q180.74-24.83 183.30-23.68L183.30-23.68L183.30-23.68Q187.39-21.82 189.79-20.29L189.79-20.29L189.79-20.29Q192.19-18.75 193.82-16.26L193.82-16.26L193.82-16.26Q195.46-13.76 195.46-10.05L195.46-10.05L195.46-10.05Q195.46-6.85 193.44-4.26L193.44-4.26L193.44-4.26Q191.42-1.66 188.00-0.19L188.00-0.19L188.00-0.19Q184.58 1.28 180.48 1.28L180.48 1.28Z" fill="#2a3e83"/>
    </g>
  </g>
</svg>