<svg width="192.337548828125px" height="93.2275390625px" xmlns="http://www.w3.org/2000/svg" viewBox="153.8312255859375 28.38623046875 192.337548828125 93.2275390625" style="background: rgba(0, 0, 0, 0);" preserveAspectRatio="xMidYMid"><defs><filter id="editing-hole" x="-100%" y="-100%" width="300%" height="300%"><feFlood flood-color="#000" result="black"></feFlood><feMorphology operator="dilate" radius="2" in="SourceGraphic" result="erode"></feMorphology><feGaussianBlur in="erode" stdDeviation="4" result="blur"></feGaussianBlur><feOffset in="blur" dx="2" dy="2" result="offset"></feOffset><feComposite operator="atop" in="offset" in2="black" result="merge"></feComposite><feComposite operator="in" in="merge" in2="SourceGraphic" result="inner-shadow"></feComposite></filter></defs><g filter="url(#editing-hole)"><g transform="translate(186.46000218391418, 92.44999885559082)"><path d="M18.02-32.88L18.02-32.88L18.82-32.88L18.82-32.88Q20.46-32.88 22.59-32.47L22.59-32.47L22.59-32.47Q24.73-32.06 25.95-31.99L25.95-31.99L25.95-31.99Q27.16-31.92 27.87-31.52L27.87-31.52L27.87-31.52Q29.23-30.75 29.23-27.52L29.23-27.52L29.23-27.52Q29.23-24.28 28.01-24.28L28.01-24.28L28.01-24.28Q27.61-24.28 26.04-26.07L26.04-26.07L26.04-26.07Q24.47-27.87 23.04-28.64L23.04-28.64L23.04-28.64Q20.51-30 17.37-30L17.37-30L17.37-30Q15.56-30 13.73-29.02L13.73-29.02L13.73-29.02Q8.23-26.09 8.23-16.27L8.23-16.27L8.23-16.27Q8.25-10.17 11.06-6.42L11.06-6.42L11.06-6.42Q13.88-2.67 18.89-2.67L18.89-2.67L18.89-2.67Q23.18-2.67 26.16-5.51L26.16-5.51L26.16-5.51Q28.01-7.27 28.52-7.27L28.52-7.27L28.52-7.27Q29.51-7.27 29.51-5.84L29.51-5.84L29.51-5.84Q29.51-5.11 28.59-3.56L28.59-3.56L28.59-3.56Q27.68-2.02 26.55-1.38L26.55-1.38L26.55-1.38Q23.39 0.38 18.33 0.38L18.33 0.38L17.51 0.38L17.51 0.38Q14.67 0.38 11.77-0.66L11.77-0.66L11.77-0.66Q5.88-2.74 3.52-8.91L3.52-8.91L3.52-8.91Q2.30-12.12 2.30-15.93L2.30-15.93L2.30-15.93Q2.30-19.73 3.52-22.92L3.52-22.92L3.52-22.92Q5.98-29.39 11.86-31.71L11.86-31.71L11.86-31.71Q14.84-32.88 18.02-32.88ZM34.27-1.29L34.27-1.29L34.27-1.29Q34.27-1.71 35.27-2.82L35.27-2.82L35.27-2.82Q36.28-3.94 36.53-5.06L36.53-5.06L36.53-5.06Q36.77-6.19 36.77-16.92L36.77-16.92L36.77-16.92Q36.77-27.66 36.28-29.93L36.28-29.93L36.28-29.93Q36.05-31.03 35.30-31.55L35.30-31.55L35.30-31.55Q33.94-32.51 33.94-32.58L33.94-32.58L33.94-32.58Q33.94-33.45 34.85-33.80L34.85-33.80L34.85-33.80Q36.59-34.48 38.91-34.48L38.91-34.48L39.68-34.48L39.68-34.48Q40.76-34.48 41.21-33.61L41.21-33.61L41.21-33.61Q41.67-32.74 41.67-29.79L41.67-29.79L41.65-28.92L41.65-28.92Q41.63-28.05 41.63-27.19L41.63-27.19L41.58-25.45L41.58-25.45Q41.58-24.59 41.58-23.72L41.58-23.72L41.58-23.72Q41.58-20.65 42.66-20.65L42.66-20.65L42.66-20.65Q42.77-20.67 43.85-21.14L43.85-21.14L43.85-21.14Q47.11-22.59 49.31-22.59L49.31-22.59L49.31-22.59Q53.44-22.59 55.10-19.29L55.10-19.29L55.10-19.29Q56.20-17.04 56.20-8.23L56.20-8.23L56.20-8.23Q56.20-4.83 56.45-4.00L56.45-4.00L56.45-4.00Q56.70-3.16 57.79-2.27L57.79-2.27L57.79-2.27Q58.88-1.38 58.88-1.15L58.88-1.15L58.88-1.15Q58.88-0.42 57.93-0.16L57.93-0.16L57.93-0.16Q56.98 0.09 53.09 0.09L53.09 0.09L52.27 0.09L52.27 0.09Q49.71 0.09 49.71-0.94L49.71-0.94L49.71-0.94Q49.71-1.17 50.32-2.12L50.32-2.12L50.32-2.12Q50.93-3.07 51.12-4.27L51.12-4.27L51.12-4.27Q51.30-5.46 51.30-10.52L51.30-10.52L51.30-10.52Q51.30-15.59 50.84-16.90L50.84-16.90L50.84-16.90Q49.22-19.01 47.25-19.48L47.25-19.48L47.25-19.48Q44.55-19.48 42.94-17.55L42.94-17.55L42.94-17.55Q41.74-16.15 41.74-11.14L41.74-11.14L41.74-11.14Q41.74-6.14 41.98-4.77L41.98-4.77L41.98-4.77Q42.21-3.40 43.00-2.29L43.00-2.29L43.00-2.29Q43.78-1.17 43.78-0.91L43.78-0.91L43.78-0.91Q43.78-0.07 39.02-0.07L39.02-0.07L39.02-0.07Q34.27-0.07 34.27-1.29ZM77.60-15.23L77.60-15.23L77.60-15.96L77.60-15.96Q77.60-17.70 76.36-19.09L76.36-19.09L76.36-19.09Q75.12-20.48 73.31-20.48L73.31-20.48L72.87-20.48L72.87-20.48Q72.54-20.44 72.42-20.44L72.42-20.44L72.42-20.44Q70.78-20.44 69.32-18.56L69.32-18.56L69.32-18.56Q67.85-16.69 67.85-14.55L67.85-14.55L67.85-14.25L67.85-14.25Q67.85-13.50 68.74-13.50L68.74-13.50L68.74-13.50Q69.09-13.43 69.12-13.43L69.12-13.43L69.66-13.41L69.80-13.41L69.96-13.43L74.48-13.69L75.33-13.78L75.33-13.78Q77.60-13.78 77.60-15.23ZM67.85-9.02L67.85-9.02L67.85-9.02Q67.85-6.35 69.87-4.55L69.87-4.55L69.87-4.55Q71.88-2.74 74.98-2.74L74.98-2.74L74.98-2.74Q76.22-2.74 77.24-3.11L77.24-3.11L77.24-3.11Q78.26-3.47 79.46-3.98L79.46-3.98L79.46-3.98Q80.67-4.50 80.98-4.50L80.98-4.50L80.98-4.50Q81.91-4.50 81.91-3.49L81.91-3.49L81.91-3.49Q81.91-2.13 78.45-0.59L78.45-0.59L78.45-0.59Q76.20 0.42 73.62 0.42L73.62 0.42L73.10 0.42L73.10 0.42Q68.70 0.42 65.79-2.25L65.79-2.25L65.79-2.25Q64.22-3.70 63.35-5.96L63.35-5.96L63.35-5.96Q62.48-8.23 62.48-10.83L62.48-10.83L62.51-11.37L62.51-11.91L62.51-11.91Q62.51-14.16 63.54-16.34L63.54-16.34L63.54-16.34Q64.59-18.52 66.05-19.92L66.05-19.92L66.05-19.92Q69.12-22.88 73.34-22.90L73.34-22.90L73.34-22.90Q79.71-22.90 81.82-17.93L81.82-17.93L81.82-17.93Q82.48-16.36 82.48-15.05L82.48-15.05L82.48-14.58L82.48-14.58Q82.48-12.96 81.14-12.41L81.14-12.41L81.14-12.41Q79.80-11.86 74.84-11.51L74.84-11.51L74.84-11.51Q69.87-11.16 69.45-11.04L69.45-11.04L69.45-11.04Q67.85-10.64 67.85-9.02ZM101.93-10.52L101.93-10.52Q103.78-8.77 103.78-6.08L103.78-6.08L103.78-6.08Q103.78-3.40 101.58-1.49L101.58-1.49L101.58-1.49Q99.38 0.42 95.48 0.42L95.48 0.42L94.85 0.42L94.85 0.42Q90.42 0.42 88.10-0.68L88.10-0.68L88.10-0.68Q86.81-1.29 86.81-3.40L86.81-3.40L86.81-3.98L86.81-3.98Q86.81-6.68 87.82-6.68L87.82-6.68L87.82-6.68Q88.66-6.68 89.81-5.10L89.81-5.10L89.81-5.10Q90.96-3.52 91.73-2.98L91.73-2.98L91.73-2.98Q93.23-1.95 95.26-1.95L95.26-1.95L95.26-1.95Q97.29-1.95 98.25-2.80L98.25-2.80L98.25-2.80Q99.21-3.66 99.21-5.06L99.21-5.06L99.21-5.06Q99.21-6.47 97.57-7.66L97.57-7.66L97.57-7.66Q96.70-8.30 93.53-9.66L93.53-9.66L93.53-9.66Q90.35-11.02 88.78-12.50L88.78-12.50L88.78-12.50Q87.21-13.99 87.21-16.71L87.21-16.71L87.21-16.71Q87.21-19.43 89.48-21.13L89.48-21.13L89.48-21.13Q91.76-22.83 95.09-22.83L95.09-22.83L95.72-22.83L95.72-22.83Q100.08-22.83 101.84-21.80L101.84-21.80L101.84-21.80Q102.75-21.26 102.75-18.80L102.75-18.80L102.75-18.80Q102.75-16.34 101.58-16.34L101.58-16.34L101.58-16.34Q100.92-16.34 99.79-17.80L99.79-17.80L99.79-17.80Q98.65-19.27 97.71-19.89L97.71-19.89L97.71-19.89Q96.77-20.51 95.12-20.51L95.12-20.51L95.12-20.51Q93.47-20.51 92.51-19.76L92.51-19.76L92.51-19.76Q91.55-19.01 91.55-17.59L91.55-17.59L91.55-17.59Q91.55-16.17 93.30-15.05L93.30-15.05L93.30-15.05Q93.75-14.74 97.20-13.24L97.20-13.24L97.20-13.24Q100.64-11.74 101.93-10.52L101.93-10.52ZM122.93-10.52L122.93-10.52Q124.78-8.77 124.78-6.08L124.78-6.08L124.78-6.08Q124.78-3.40 122.58-1.49L122.58-1.49L122.58-1.49Q120.38 0.42 116.48 0.42L116.48 0.42L115.85 0.42L115.85 0.42Q111.42 0.42 109.10-0.68L109.10-0.68L109.10-0.68Q107.81-1.29 107.81-3.40L107.81-3.40L107.81-3.98L107.81-3.98Q107.81-6.68 108.82-6.68L108.82-6.68L108.82-6.68Q109.66-6.68 110.81-5.10L110.81-5.10L110.81-5.10Q111.96-3.52 112.73-2.98L112.73-2.98L112.73-2.98Q114.23-1.95 116.26-1.95L116.26-1.95L116.26-1.95Q118.29-1.95 119.25-2.80L119.25-2.80L119.25-2.80Q120.21-3.66 120.21-5.06L120.21-5.06L120.21-5.06Q120.21-6.47 118.57-7.66L118.57-7.66L118.57-7.66Q117.70-8.30 114.53-9.66L114.53-9.66L114.53-9.66Q111.35-11.02 109.78-12.50L109.78-12.50L109.78-12.50Q108.21-13.99 108.21-16.71L108.21-16.71L108.21-16.71Q108.21-19.43 110.48-21.13L110.48-21.13L110.48-21.13Q112.76-22.83 116.09-22.83L116.09-22.83L116.72-22.83L116.72-22.83Q121.08-22.83 122.84-21.80L122.84-21.80L122.84-21.80Q123.75-21.26 123.75-18.80L123.75-18.80L123.75-18.80Q123.75-16.34 122.58-16.34L122.58-16.34L122.58-16.34Q121.92-16.34 120.79-17.80L120.79-17.80L120.79-17.80Q119.65-19.27 118.71-19.89L118.71-19.89L118.71-19.89Q117.77-20.51 116.12-20.51L116.12-20.51L116.12-20.51Q114.47-20.51 113.51-19.76L113.51-19.76L113.51-19.76Q112.55-19.01 112.55-17.59L112.55-17.59L112.55-17.59Q112.55-16.17 114.30-15.05L114.30-15.05L114.30-15.05Q114.75-14.74 118.20-13.24L118.20-13.24L118.20-13.24Q121.64-11.74 122.93-10.52L122.93-10.52Z" fill="#ccc"></path></g></g><style>text {
  font-size: 64px;
  font-family: Arial Black;
  dominant-baseline: central;
  text-anchor: middle;
}</style></svg>