<?xml version="1.0" encoding="utf-8"?>
<svg viewBox="105.296 15.551 156.28 30.218" style="background: transparent;" xmlns="http://www.w3.org/2000/svg">
  <defs>
    <filter id="editing-extrusion" x="-100%" y="-100%" width="300%" height="300%">
      <feFlood result="color1" flood-color="#dad69f"/>
      <feConvolveMatrix order="5,5" divisor="1" kernelMatrix="1 0 0 0 0 0 1 0 0 0 0 0 1 0 0 0 0 0 1 0 0 0 0 0 1" in="SourceAlpha" result="extrude"/>
      <feComposite in="color1" in2="extrude" result="comp-extrude" operator="in"/>
      <feOffset dx="2.5" dy="2.5" in="comp-extrude" result="offset-extrude"/>
      <feMerge>
        <feMergeNode in="offset-extrude"/>
        <feMergeNode in="SourceGraphic"/>
      </feMerge>
    </filter>
    <style>text {
  font-size: 64px;
  font-family: Arial Black;
  dominant-baseline: central;
  text-anchor: middle;
}</style>
  </defs>
  <g filter="url(#editing-extrusion)" transform="matrix(0.534939, 0, 0, 0.475662, 27.656784, -8.770188)" style="">
    <g transform="matrix(1, 0, 0, 1, 148.063583, 96.470001)">
      <path d="M22.91 1.28L22.91 1.28Q17.47 1.28 12.96-1.31L12.96-1.31L12.96-1.31Q8.45-3.90 5.79-8.70L5.79-8.70L5.79-8.70Q3.14-13.50 3.14-19.90L3.14-19.90L3.14-19.90Q3.14-26.37 5.70-31.30L5.70-31.30L5.70-31.30Q8.26-36.22 12.99-38.94L12.99-38.94L12.99-38.94Q17.73-41.66 24.06-41.66L24.06-41.66L24.06-41.66Q29.57-41.66 33.86-39.46L33.86-39.46L33.86-39.46Q38.14-37.25 38.14-32.64L38.14-32.64L38.14-32.64Q38.21-29.76 36.42-27.74L36.42-27.74L36.42-27.74Q34.62-25.73 31.62-25.73L31.62-25.73L31.62-25.73Q30.46-25.73 29.66-26.14L29.66-26.14L29.66-26.14Q28.86-26.56 28.48-27.14L28.48-27.14L28.48-27.14Q28.10-27.71 28.16-28.03L28.16-28.03L28.16-28.03Q28.16-28.16 29.06-28.74L29.06-28.74L29.06-28.74Q29.95-29.31 30.66-30.34L30.66-30.34L30.66-30.34Q31.36-31.36 31.36-32.83L31.36-32.83L31.36-32.83Q31.36-35.71 29.41-37.41L29.41-37.41L29.41-37.41Q27.46-39.10 24-39.10L24-39.10L24-39.10Q20.10-39.10 17.06-36.90L17.06-36.90L17.06-36.90Q14.02-34.69 12.32-30.43L12.32-30.43L12.32-30.43Q10.62-26.18 10.62-20.29L10.62-20.29L10.62-20.29Q10.62-15.17 12.45-10.98L12.45-10.98L12.45-10.98Q14.27-6.78 17.60-4.32L17.60-4.32L17.60-4.32Q20.93-1.86 25.22-1.86L25.22-1.86L25.22-1.86Q28.67-1.86 31.14-3.30L31.14-3.30L31.14-3.30Q33.60-4.74 35.58-7.94L35.58-7.94L35.58-7.94Q35.90-8.51 36.48-8.51L36.48-8.51L36.48-8.51Q36.99-8.51 37.63-8.13L37.63-8.13L37.63-8.13Q38.66-7.42 38.66-6.72L38.66-6.72L38.66-6.72Q38.66-6.34 38.40-6.08L38.40-6.08L38.40-6.08Q35.97-3.01 33.82-1.44L33.82-1.44L33.82-1.44Q31.68 0.13 29.18 0.70L29.18 0.70L29.18 0.70Q26.69 1.28 22.91 1.28L22.91 1.28ZM44.80 0.19L44.80 0.19Q44.22 0.19 43.94-0.22L43.94-0.22L43.94-0.22Q43.65-0.64 43.65-1.22L43.65-1.22L43.65-1.22Q43.71-2.18 44.03-2.37L44.03-2.37L44.03-2.37Q44.35-2.56 45.25-2.56L45.25-2.56L45.25-2.56Q47.10-2.56 48-3.23L48-3.23L48-3.23Q48.90-3.90 49.12-4.90L49.12-4.90L49.12-4.90Q49.34-5.89 49.41-7.49L49.41-7.49L49.41-32.90L49.41-32.90Q49.34-34.50 49.12-35.49L49.12-35.49L49.12-35.49Q48.90-36.48 48-37.15L48-37.15L48-37.15Q47.10-37.82 45.25-37.82L45.25-37.82L44.86-37.82L44.86-37.82Q44.22-37.82 43.97-38.05L43.97-38.05L43.97-38.05Q43.71-38.27 43.65-39.17L43.65-39.17L43.65-39.17Q43.65-39.74 43.94-40.16L43.94-40.16L43.94-40.16Q44.22-40.58 44.80-40.58L44.80-40.58L44.80-40.58Q48.96-40.38 52.35-40.38L52.35-40.38L52.35-40.38Q56.19-40.38 60.35-40.58L60.35-40.58L60.35-40.58Q60.93-40.58 61.22-40.16L61.22-40.16L61.22-40.16Q61.50-39.74 61.50-39.17L61.50-39.17L61.50-39.17Q61.44-38.21 61.12-38.02L61.12-38.02L61.12-38.02Q60.80-37.82 59.90-37.82L59.90-37.82L59.90-37.82Q58.05-37.82 57.15-37.15L57.15-37.15L57.15-37.15Q56.26-36.48 56.03-35.49L56.03-35.49L56.03-35.49Q55.81-34.50 55.74-32.90L55.74-32.90L55.74-21.57L75.84-21.57L75.84-32.90L75.84-32.90Q75.78-34.50 75.55-35.49L75.55-35.49L75.55-35.49Q75.33-36.48 74.43-37.15L74.43-37.15L74.43-37.15Q73.54-37.82 71.68-37.82L71.68-37.82L71.30-37.82L71.30-37.82Q70.66-37.82 70.37-38.05L70.37-38.05L70.37-38.05Q70.08-38.27 70.02-39.17L70.02-39.17L70.02-39.17Q70.02-39.74 70.34-40.16L70.34-40.16L70.34-40.16Q70.66-40.58 71.17-40.58L71.17-40.58L71.17-40.58Q75.33-40.38 79.17-40.38L79.17-40.38L79.17-40.38Q82.69-40.38 86.78-40.58L86.78-40.58L86.78-40.58Q87.36-40.58 87.65-40.16L87.65-40.16L87.65-40.16Q87.94-39.74 87.94-39.17L87.94-39.17L87.94-39.17Q87.87-38.21 87.52-38.02L87.52-38.02L87.52-38.02Q87.17-37.82 86.34-37.82L86.34-37.82L86.34-37.82Q84.48-37.82 83.55-37.15L83.55-37.15L83.55-37.15Q82.62-36.48 82.40-35.49L82.40-35.49L82.40-35.49Q82.18-34.50 82.11-32.90L82.11-32.90L82.11-7.49L82.11-7.49Q82.18-5.89 82.40-4.90L82.40-4.90L82.40-4.90Q82.62-3.90 83.55-3.23L83.55-3.23L83.55-3.23Q84.48-2.56 86.34-2.56L86.34-2.56L86.72-2.56L86.72-2.56Q87.30-2.56 87.58-2.34L87.58-2.34L87.58-2.34Q87.87-2.11 87.94-1.22L87.94-1.22L87.94-1.22Q87.94-0.64 87.65-0.22L87.65-0.22L87.65-0.22Q87.36 0.19 86.78 0.19L86.78 0.19L86.78 0.19Q82.69 0 79.10 0L79.10 0L79.10 0Q75.33 0 71.17 0.19L71.17 0.19L71.17 0.19Q70.66 0.19 70.34-0.22L70.34-0.22L70.34-0.22Q70.02-0.64 70.02-1.22L70.02-1.22L70.02-1.22Q70.08-2.18 70.43-2.37L70.43-2.37L70.43-2.37Q70.78-2.56 71.68-2.56L71.68-2.56L71.68-2.56Q73.54-2.56 74.43-3.23L74.43-3.23L74.43-3.23Q75.33-3.90 75.55-4.90L75.55-4.90L75.55-4.90Q75.78-5.89 75.84-7.49L75.84-7.49L75.84-18.82L55.74-18.82L55.74-7.49L55.74-7.49Q55.81-5.89 56.03-4.90L56.03-4.90L56.03-4.90Q56.26-3.90 57.15-3.23L57.15-3.23L57.15-3.23Q58.05-2.56 59.90-2.56L59.90-2.56L60.29-2.56L60.29-2.56Q60.93-2.56 61.18-2.34L61.18-2.34L61.18-2.34Q61.44-2.11 61.50-1.22L61.50-1.22L61.50-1.22Q61.50-0.64 61.22-0.22L61.22-0.22L61.22-0.22Q60.93 0.19 60.35 0.19L60.35 0.19L60.35 0.19Q56.26 0 52.42 0L52.42 0L52.42 0Q48.96 0 44.80 0.19L44.80 0.19ZM94.46 0.19L94.46 0.19Q93.95 0.19 93.66-0.22L93.66-0.22L93.66-0.22Q93.38-0.64 93.38-1.22L93.38-1.22L93.38-1.22Q93.44-2.18 93.76-2.37L93.76-2.37L93.76-2.37Q94.08-2.56 94.98-2.56L94.98-2.56L94.98-2.56Q96.83-2.56 97.73-3.23L97.73-3.23L97.73-3.23Q98.62-3.90 98.85-4.90L98.85-4.90L98.85-4.90Q99.07-5.89 99.14-7.49L99.14-7.49L99.14-32.90L99.14-32.90Q99.07-34.50 98.85-35.49L98.85-35.49L98.85-35.49Q98.62-36.48 97.73-37.15L97.73-37.15L97.73-37.15Q96.83-37.82 94.98-37.82L94.98-37.82L94.59-37.82L94.59-37.82Q93.95-37.82 93.70-38.05L93.70-38.05L93.70-38.05Q93.44-38.27 93.38-39.17L93.38-39.17L93.38-39.17Q93.38-39.74 93.66-40.16L93.66-40.16L93.66-40.16Q93.95-40.58 94.46-40.58L94.46-40.58L94.46-40.58Q98.69-40.38 102.08-40.38L102.08-40.38L122.18-40.38L122.18-40.38Q123.84-40.38 123.84-38.85L123.84-38.85L124.03-29.89L124.03-29.89Q124.03-29.31 123.46-28.96L123.46-28.96L123.46-28.96Q122.88-28.61 122.30-28.61L122.30-28.61L122.30-28.61Q121.54-28.61 120.96-28.90L120.96-28.90L120.96-28.90Q120.38-29.18 120.32-29.76L120.32-29.76L120.32-29.76Q119.81-32.90 119.20-34.53L119.20-34.53L119.20-34.53Q118.59-36.16 117.41-36.96L117.41-36.96L117.41-36.96Q116.22-37.76 114.05-37.82L114.05-37.82L105.47-37.82L105.47-21.57L117.06-21.57L117.06-21.57Q117.50-21.50 117.76-21.09L117.76-21.09L117.76-21.09Q118.02-20.67 118.02-20.10L118.02-20.10L118.02-20.10Q118.02-19.58 117.76-19.20L117.76-19.20L117.76-19.20Q117.50-18.82 117.06-18.82L117.06-18.82L105.47-18.82L105.47-6.72L105.47-6.72Q105.60-5.38 105.79-4.58L105.79-4.58L105.79-4.58Q105.98-3.78 106.94-3.14L106.94-3.14L106.94-3.14Q107.90-2.50 109.95-2.56L109.95-2.56L115.84-2.56L115.84-2.56Q118.08-2.62 119.23-3.30L119.23-3.30L119.23-3.30Q120.38-3.97 121.06-5.38L121.06-5.38L121.06-5.38Q121.73-6.78 122.69-9.98L122.69-9.98L122.69-9.98Q123.14-11.14 124.86-10.88L124.86-10.88L124.86-10.88Q125.50-10.75 125.98-10.37L125.98-10.37L125.98-10.37Q126.46-9.98 126.40-9.41L126.40-9.41L125.12-1.34L125.12-1.34Q124.93-0.51 124.54-0.26L124.54-0.26L124.54-0.26Q124.16 0 123.26 0L123.26 0L102.14 0L102.14 0Q98.69 0 94.46 0.19L94.46 0.19ZM145.60 1.28L145.60 1.28Q138.88 1.28 135.33-1.06L135.33-1.06L135.33-1.06Q131.78-3.39 131.78-7.94L131.78-7.94L131.78-7.94Q131.78-10.24 133.34-11.74L133.34-11.74L133.34-11.74Q134.91-13.25 137.41-13.25L137.41-13.25L137.41-13.25Q138.88-13.18 139.65-12.51L139.65-12.51L139.65-12.51Q140.42-11.84 140.42-11.26L140.42-11.26L140.42-11.26Q140.42-11.20 139.78-10.82L139.78-10.82L139.78-10.82Q139.14-10.43 138.62-9.66L138.62-9.66L138.62-9.66Q138.11-8.90 138.11-7.55L138.11-7.55L138.11-7.55Q138.11-4.54 139.94-2.91L139.94-2.91L139.94-2.91Q141.76-1.28 145.60-1.28L145.60-1.28L145.60-1.28Q148.22-1.28 150.21-2.30L150.21-2.30L150.21-2.30Q152.19-3.33 153.25-5.02L153.25-5.02L153.25-5.02Q154.30-6.72 154.30-8.58L154.30-8.58L154.30-8.58Q154.30-10.88 152.99-12.54L152.99-12.54L152.99-12.54Q151.68-14.21 149.76-15.33L149.76-15.33L149.76-15.33Q147.84-16.45 144.51-17.92L144.51-17.92L144.51-17.92Q140.67-19.65 138.30-21.06L138.30-21.06L138.30-21.06Q135.94-22.46 134.27-24.80L134.27-24.80L134.27-24.80Q132.61-27.14 132.61-30.59L132.61-30.59L132.61-30.59Q132.61-36.16 136.42-38.91L136.42-38.91L136.42-38.91Q140.22-41.66 146.43-41.66L146.43-41.66L146.43-41.66Q151.30-41.66 154.91-39.62L154.91-39.62L154.91-39.62Q158.53-37.57 158.53-33.60L158.53-33.60L158.53-33.60Q158.53-31.30 156.96-29.79L156.96-29.79L156.96-29.79Q155.39-28.29 152.90-28.29L152.90-28.29L152.90-28.29Q151.42-28.35 150.66-29.02L150.66-29.02L150.66-29.02Q149.89-29.70 149.89-30.27L149.89-30.27L149.89-30.27Q149.89-30.34 150.75-30.72L150.75-30.72L150.75-30.72Q151.62-31.10 152.29-31.87L152.29-31.87L152.29-31.87Q152.96-32.64 152.96-33.98L152.96-33.98L152.96-33.98Q152.96-36.35 151.14-37.70L151.14-37.70L151.14-37.70Q149.31-39.04 146.50-39.04L146.50-39.04L146.50-39.04Q142.59-39.04 140.58-37.22L140.58-37.22L140.58-37.22Q138.56-35.39 138.56-32.70L138.56-32.70L138.56-32.70Q138.56-30.46 139.78-28.96L139.78-28.96L139.78-28.96Q140.99-27.46 143.68-25.98L143.68-25.98L143.68-25.98Q145.86-24.83 148.42-23.68L148.42-23.68L148.42-23.68Q152.51-21.82 154.91-20.29L154.91-20.29L154.91-20.29Q157.31-18.75 158.94-16.26L158.94-16.26L158.94-16.26Q160.58-13.76 160.58-10.05L160.58-10.05L160.58-10.05Q160.58-6.85 158.56-4.26L158.56-4.26L158.56-4.26Q156.54-1.66 153.12-0.19L153.12-0.19L153.12-0.19Q149.70 1.28 145.60 1.28L145.60 1.28ZM180.48 1.28L180.48 1.28Q173.76 1.28 170.21-1.06L170.21-1.06L170.21-1.06Q166.66-3.39 166.66-7.94L166.66-7.94L166.66-7.94Q166.66-10.24 168.22-11.74L168.22-11.74L168.22-11.74Q169.79-13.25 172.29-13.25L172.29-13.25L172.29-13.25Q173.76-13.18 174.53-12.51L174.53-12.51L174.53-12.51Q175.30-11.84 175.30-11.26L175.30-11.26L175.30-11.26Q175.30-11.20 174.66-10.82L174.66-10.82L174.66-10.82Q174.02-10.43 173.50-9.66L173.50-9.66L173.50-9.66Q172.99-8.90 172.99-7.55L172.99-7.55L172.99-7.55Q172.99-4.54 174.82-2.91L174.82-2.91L174.82-2.91Q176.64-1.28 180.48-1.28L180.48-1.28L180.48-1.28Q183.10-1.28 185.09-2.30L185.09-2.30L185.09-2.30Q187.07-3.33 188.13-5.02L188.13-5.02L188.13-5.02Q189.18-6.72 189.18-8.58L189.18-8.58L189.18-8.58Q189.18-10.88 187.87-12.54L187.87-12.54L187.87-12.54Q186.56-14.21 184.64-15.33L184.64-15.33L184.64-15.33Q182.72-16.45 179.39-17.92L179.39-17.92L179.39-17.92Q175.55-19.65 173.18-21.06L173.18-21.06L173.18-21.06Q170.82-22.46 169.15-24.80L169.15-24.80L169.15-24.80Q167.49-27.14 167.49-30.59L167.49-30.59L167.49-30.59Q167.49-36.16 171.30-38.91L171.30-38.91L171.30-38.91Q175.10-41.66 181.31-41.66L181.31-41.66L181.31-41.66Q186.18-41.66 189.79-39.62L189.79-39.62L189.79-39.62Q193.41-37.57 193.41-33.60L193.41-33.60L193.41-33.60Q193.41-31.30 191.84-29.79L191.84-29.79L191.84-29.79Q190.27-28.29 187.78-28.29L187.78-28.29L187.78-28.29Q186.30-28.35 185.54-29.02L185.54-29.02L185.54-29.02Q184.77-29.70 184.77-30.27L184.77-30.27L184.77-30.27Q184.77-30.34 185.63-30.72L185.63-30.72L185.63-30.72Q186.50-31.10 187.17-31.87L187.17-31.87L187.17-31.87Q187.84-32.64 187.84-33.98L187.84-33.98L187.84-33.98Q187.84-36.35 186.02-37.70L186.02-37.70L186.02-37.70Q184.19-39.04 181.38-39.04L181.38-39.04L181.38-39.04Q177.47-39.04 175.46-37.22L175.46-37.22L175.46-37.22Q173.44-35.39 173.44-32.70L173.44-32.70L173.44-32.70Q173.44-30.46 174.66-28.96L174.66-28.96L174.66-28.96Q175.87-27.46 178.56-25.98L178.56-25.98L178.56-25.98Q180.74-24.83 183.30-23.68L183.30-23.68L183.30-23.68Q187.39-21.82 189.79-20.29L189.79-20.29L189.79-20.29Q192.19-18.75 193.82-16.26L193.82-16.26L193.82-16.26Q195.46-13.76 195.46-10.05L195.46-10.05L195.46-10.05Q195.46-6.85 193.44-4.26L193.44-4.26L193.44-4.26Q191.42-1.66 188.00-0.19L188.00-0.19L188.00-0.19Q184.58 1.28 180.48 1.28L180.48 1.28Z" fill="#2a3e83"/>
      <path d="M 209.945 -1.052 L 209.945 -1.052 L 209.945 -1.052 C 210.277 0.054 210.653 0.997 211.074 1.778 L 211.074 1.778 L 211.074 1.778 C 211.493 2.563 211.906 3.168 212.309 3.591 L 212.309 3.591 L 212.309 3.591 C 212.719 4.019 213.186 4.349 213.713 4.582 L 213.713 4.582 L 213.713 4.582 C 214.232 4.82 214.697 4.97 215.107 5.029 L 215.107 5.029 L 215.107 5.029 C 215.51 5.089 215.994 5.118 216.559 5.118 L 216.559 5.118 L 216.559 5.118 C 218.363 5.118 219.919 4.182 221.231 2.306 L 221.231 2.306 L 221.231 2.306 C 222.541 0.431 223.198 -2.004 223.198 -5.002 L 223.198 -5.002 L 223.198 -5.912 L 223.198 -5.912 C 220.713 -4.952 218.121 -4.473 215.422 -4.473 L 215.422 -4.473 L 215.422 -4.473 C 213.74 -4.473 212.224 -4.728 210.875 -5.237 L 210.875 -5.237 L 210.875 -5.237 C 209.525 -5.742 208.428 -6.418 207.588 -7.269 L 207.588 -7.269 L 207.588 -7.269 C 206.753 -8.121 206.113 -9.074 205.671 -10.13 L 205.671 -10.13 L 205.671 -10.13 C 205.228 -11.193 205.007 -12.296 205.007 -13.439 L 205.007 -13.439 L 205.007 -13.439 C 205.007 -14.642 205.245 -15.798 205.721 -16.91 L 205.721 -16.91 L 205.721 -16.91 C 206.196 -18.026 206.875 -19.031 207.755 -19.926 L 207.755 -19.926 L 207.755 -19.926 C 208.639 -20.825 209.792 -21.545 211.215 -22.088 L 211.215 -22.088 L 211.215 -22.088 C 212.642 -22.625 214.23 -22.892 215.977 -22.892 L 215.977 -22.892 L 215.977 -22.892 C 218.722 -22.892 221.026 -22.242 222.891 -20.942 L 222.891 -20.942 L 222.891 -20.942 C 224.76 -19.641 226.129 -17.839 226.998 -15.537 L 226.998 -15.537 L 226.998 -15.537 C 227.866 -13.233 228.3 -10.477 228.3 -7.269 L 228.3 -7.269 L 228.3 -7.269 C 228.3 -4.609 227.986 -2.276 227.354 -0.271 L 227.354 -0.271 L 227.354 -0.271 C 226.729 1.729 225.836 3.346 224.674 4.582 L 224.674 4.582 L 224.674 4.582 C 223.507 5.818 222.135 6.738 220.558 7.345 L 220.558 7.345 L 220.558 7.345 C 218.981 7.952 217.199 8.256 215.214 8.256 L 215.214 8.256 L 215.214 8.256 C 213.095 8.256 210.755 7.871 208.194 7.102 L 208.194 7.102 L 207.92 6.338 L 207.92 6.338 C 207.068 3.958 206.513 1.737 206.252 -0.328 L 206.252 -0.328 L 206.252 -0.328 C 206.252 -0.463 206.676 -0.631 207.523 -0.832 L 207.523 -0.832 L 207.523 -0.832 C 208.368 -1.033 209.046 -1.133 209.555 -1.133 L 209.555 -1.133 L 209.555 -1.133 C 209.804 -1.133 209.933 -1.105 209.945 -1.052 Z M 215.613 -19.836 L 215.613 -19.836 L 215.613 -19.836 C 214.688 -19.836 213.853 -19.668 213.107 -19.331 L 213.107 -19.331 L 213.107 -19.331 C 212.364 -18.996 211.768 -18.541 211.314 -17.967 L 211.314 -17.967 L 211.314 -17.967 C 210.86 -17.392 210.512 -16.755 210.269 -16.057 L 210.269 -16.057 L 210.269 -16.057 C 210.024 -15.352 209.903 -14.61 209.903 -13.829 L 209.903 -13.829 L 209.903 -13.829 C 209.903 -12.193 210.451 -10.767 211.547 -9.554 L 211.547 -9.554 L 211.547 -9.554 C 212.642 -8.339 214.154 -7.733 216.086 -7.733 L 216.086 -7.733 L 216.086 -7.733 C 217.75 -7.733 219.189 -7.884 220.4 -8.188 L 220.4 -8.188 L 220.4 -8.188 C 221.617 -8.49 222.551 -8.887 223.198 -9.375 L 223.198 -9.375 L 223.198 -9.375 C 223.198 -10.941 223.047 -12.336 222.749 -13.562 L 222.749 -13.562 L 222.749 -13.562 C 222.45 -14.79 222.06 -15.791 221.579 -16.56 L 221.579 -16.56 L 221.579 -16.56 C 221.098 -17.33 220.519 -17.967 219.845 -18.47 L 219.845 -18.47 L 219.845 -18.47 C 219.169 -18.981 218.489 -19.335 217.803 -19.536 L 217.803 -19.536 L 217.803 -19.536 C 217.111 -19.735 216.381 -19.836 215.613 -19.836 Z M 248.615 -13.992 L 248.615 -13.992 L 248.615 -13.992 C 248.117 -17.958 246.338 -19.942 243.279 -19.942 L 243.279 -19.942 L 243.279 -19.942 C 242.371 -19.942 241.47 -19.679 240.574 -19.153 L 240.574 -19.153 L 240.574 -19.153 C 239.677 -18.623 238.864 -17.886 238.134 -16.943 L 238.134 -16.943 L 238.134 -16.943 C 237.404 -16 236.815 -14.79 236.367 -13.317 L 236.367 -13.317 L 236.367 -13.317 C 235.918 -11.848 235.695 -10.249 235.695 -8.521 L 235.695 -8.521 L 235.695 -8.521 C 238.189 -9.752 240.778 -10.366 243.461 -10.366 L 243.461 -10.366 L 243.461 -10.366 C 245.087 -10.366 246.559 -10.104 247.877 -9.577 L 247.877 -9.577 L 247.877 -9.577 C 249.193 -9.052 250.261 -8.344 251.079 -7.457 L 251.079 -7.457 L 251.079 -7.457 C 251.898 -6.572 252.528 -5.578 252.972 -4.473 L 252.972 -4.473 L 252.972 -4.473 C 253.414 -3.368 253.635 -2.213 253.635 -1.01 L 253.635 -1.01 L 253.635 -1.01 C 253.635 0.16 253.386 1.29 252.889 2.379 L 252.889 2.379 L 252.889 2.379 C 252.391 3.463 251.677 4.446 250.747 5.33 L 250.747 5.33 L 250.747 5.33 C 249.818 6.218 248.59 6.928 247.064 7.46 L 247.064 7.46 L 247.064 7.46 C 245.53 7.99 243.821 8.256 241.935 8.256 L 241.935 8.256 L 241.935 8.256 C 238.245 8.256 235.431 6.991 233.495 4.46 L 233.495 4.46 L 233.495 4.46 C 231.559 1.929 230.591 -1.541 230.591 -5.953 L 230.591 -5.953 L 230.591 -5.953 C 230.591 -8.825 230.923 -11.355 231.586 -13.545 L 231.586 -13.545 L 231.586 -13.545 C 232.245 -15.728 233.185 -17.495 234.409 -18.844 L 234.409 -18.844 L 234.409 -18.844 C 235.625 -20.194 237.047 -21.207 238.673 -21.884 L 238.673 -21.884 L 238.673 -21.884 C 240.3 -22.556 242.126 -22.892 244.15 -22.892 L 244.15 -22.892 L 244.15 -22.892 C 246.341 -22.892 248.524 -22.508 250.697 -21.739 L 250.697 -21.739 L 250.78 -21.494 L 250.78 -21.494 C 250.808 -21.386 250.882 -21.102 251.005 -20.64 L 251.005 -20.64 L 251.005 -20.64 C 251.132 -20.176 251.222 -19.836 251.278 -19.626 L 251.278 -19.626 L 251.278 -19.626 C 251.334 -19.413 251.419 -19.072 251.536 -18.6 L 251.536 -18.6 L 251.536 -18.6 C 251.652 -18.129 251.74 -17.714 251.802 -17.356 L 251.802 -17.356 L 251.802 -17.356 C 251.868 -17 251.939 -16.566 252.017 -16.057 L 252.017 -16.057 L 252.017 -16.057 C 252.1 -15.542 252.169 -15.027 252.224 -14.512 L 252.224 -14.512 L 252.224 -14.512 C 252.224 -14.404 251.812 -14.277 250.988 -14.13 L 250.988 -14.13 L 250.988 -14.13 C 250.163 -13.984 249.504 -13.91 249.005 -13.91 L 249.005 -13.91 L 249.005 -13.91 C 248.744 -13.91 248.615 -13.938 248.615 -13.992 Z M 249.005 -0.572 L 249.005 -0.572 L 249.005 -0.572 C 249.005 -1.716 248.827 -2.723 248.473 -3.595 L 248.473 -3.595 L 248.473 -3.595 C 248.125 -4.463 247.652 -5.141 247.054 -5.635 L 247.054 -5.635 L 247.054 -5.635 C 246.451 -6.129 245.796 -6.496 245.087 -6.741 L 245.087 -6.741 L 245.087 -6.741 C 244.379 -6.984 243.619 -7.107 242.806 -7.107 L 242.806 -7.107 L 242.806 -7.107 C 241.135 -7.107 239.691 -6.918 238.475 -6.538 L 238.475 -6.538 L 238.475 -6.538 C 237.257 -6.159 236.33 -5.666 235.695 -5.059 L 235.695 -5.059 L 235.695 -5.059 C 235.695 -3.13 235.88 -1.464 236.25 -0.059 L 236.25 -0.059 L 236.25 -0.059 C 236.626 1.344 237.132 2.421 237.769 3.175 L 237.769 3.175 L 237.769 3.175 C 238.411 3.934 239.094 4.483 239.819 4.818 L 239.819 4.818 L 239.819 4.818 C 240.544 5.154 241.331 5.322 242.184 5.322 L 242.184 5.322 L 242.184 5.322 C 243.201 5.322 244.114 5.198 244.922 4.947 L 244.922 4.947 L 244.922 4.947 C 245.73 4.698 246.38 4.377 246.872 3.98 L 246.872 3.98 L 246.872 3.98 C 247.371 3.579 247.785 3.113 248.117 2.582 L 248.117 2.582 L 248.117 2.582 C 248.449 2.046 248.679 1.524 248.805 1.014 L 248.805 1.014 L 248.805 1.014 C 248.938 0.498 249.005 -0.029 249.005 -0.572 Z M 264.074 -21.982 L 264.074 -21.982 L 264.074 -21.982 C 265.685 -22.643 267.355 -22.973 269.086 -22.973 L 269.086 -22.973 L 269.086 -22.973 C 270.823 -22.973 272.494 -22.643 274.098 -21.982 L 274.098 -21.982 L 274.098 -21.982 C 275.703 -21.322 277.153 -20.365 278.448 -19.113 L 278.448 -19.113 L 278.448 -19.113 C 279.747 -17.855 280.784 -16.22 281.559 -14.203 L 281.559 -14.203 L 281.559 -14.203 C 282.34 -12.182 282.729 -9.917 282.729 -7.407 L 282.729 -7.407 L 282.729 -7.407 C 282.729 -4.887 282.34 -2.611 281.559 -0.579 L 281.559 -0.579 L 281.559 -0.579 C 280.784 1.453 279.747 3.1 278.448 4.362 L 278.448 4.362 L 278.448 4.362 C 277.153 5.624 275.703 6.59 274.098 7.257 L 274.098 7.257 L 274.098 7.257 C 272.494 7.923 270.823 8.256 269.086 8.256 L 269.086 8.256 L 269.086 8.256 C 267.355 8.256 265.685 7.923 264.074 7.257 L 264.074 7.257 L 264.074 7.257 C 262.47 6.59 261.021 5.624 259.726 4.362 L 259.726 4.362 L 259.726 4.362 C 258.431 3.1 257.398 1.453 256.623 -0.579 L 256.623 -0.579 L 256.623 -0.579 C 255.843 -2.611 255.453 -4.887 255.453 -7.407 L 255.453 -7.407 L 255.453 -7.407 C 255.453 -9.917 255.843 -12.182 256.623 -14.203 L 256.623 -14.203 L 256.623 -14.203 C 257.398 -16.22 258.431 -17.855 259.726 -19.113 L 259.726 -19.113 L 259.726 -19.113 C 261.021 -20.365 262.47 -21.322 264.074 -21.982 Z M 266 3.858 L 266 3.858 L 266 3.858 C 266.983 4.362 268.014 4.615 269.086 4.615 L 269.086 4.615 L 269.086 4.615 C 270.165 4.615 271.197 4.362 272.182 3.858 L 272.182 3.858 L 272.182 3.858 C 273.166 3.349 274.054 2.615 274.846 1.656 L 274.846 1.656 L 274.846 1.656 C 275.636 0.701 276.27 -0.556 276.746 -2.116 L 276.746 -2.116 L 276.746 -2.116 C 277.221 -3.677 277.459 -5.414 277.459 -7.326 L 277.459 -7.326 L 277.459 -7.326 C 277.459 -9.255 277.221 -11.001 276.746 -12.561 L 276.746 -12.561 L 276.746 -12.561 C 276.27 -14.122 275.636 -15.385 274.846 -16.349 L 274.846 -16.349 L 274.846 -16.349 C 274.054 -17.314 273.166 -18.05 272.182 -18.56 L 272.182 -18.56 L 272.182 -18.56 C 271.197 -19.075 270.165 -19.331 269.086 -19.331 L 269.086 -19.331 L 269.086 -19.331 C 268.014 -19.331 266.983 -19.075 266 -18.56 L 266 -18.56 L 266 -18.56 C 265.015 -18.05 264.127 -17.314 263.336 -16.349 L 263.336 -16.349 L 263.336 -16.349 C 262.544 -15.385 261.911 -14.122 261.435 -12.561 L 261.435 -12.561 L 261.435 -12.561 C 260.959 -11.001 260.722 -9.255 260.722 -7.326 L 260.722 -7.326 L 260.722 -7.326 C 260.722 -5.414 260.959 -3.677 261.435 -2.116 L 261.435 -2.116 L 261.435 -2.116 C 261.911 -0.556 262.544 0.701 263.336 1.656 L 263.336 1.656 L 263.336 1.656 C 264.127 2.615 265.015 3.349 266 3.858 Z" style="stroke-width: 0px; fill: rgb(248, 91, 0); paint-order: fill;"/>
    </g>
  </g>
</svg>