<svg width="222.04501953125px" height="102.83251953125px" xmlns="http://www.w3.org/2000/svg" viewBox="138.977490234375 23.583740234375 222.04501953125 102.83251953125" style="background: rgba(0, 0, 0, 0);" preserveAspectRatio="xMidYMid"><defs><filter id="editing-hole" x="-100%" y="-100%" width="300%" height="300%"><feFlood flood-color="#000000" result="black"></feFlood><feMorphology operator="dilate" radius="2" in="SourceGraphic" result="erode"></feMorphology><feGaussianBlur in="erode" stdDeviation="4" result="blur"></feGaussianBlur><feOffset in="blur" dx="2" dy="2" result="offset"></feOffset><feComposite operator="atop" in="offset" in2="black" result="merge"></feComposite><feComposite operator="in" in="merge" in2="SourceGraphic" result="inner-shadow"></feComposite></filter></defs><g filter="url(#editing-hole)"><g transform="translate(175.87000465393066, 94.01000022888184)"><path d="M20.28-36.99L20.28-36.99L21.17-36.99L21.17-36.99Q23.02-36.99 25.42-36.53L25.42-36.53L25.42-36.53Q27.82-36.07 29.19-35.99L29.19-35.99L29.19-35.99Q30.56-35.91 31.35-35.46L31.35-35.46L31.35-35.46Q32.88-34.59 32.88-30.96L32.88-30.96L32.88-30.96Q32.88-27.32 31.51-27.32L31.51-27.32L31.51-27.32Q31.06-27.32 29.29-29.33L29.29-29.33L29.29-29.33Q27.53-31.35 25.92-32.22L25.92-32.22L25.92-32.22Q23.07-33.75 19.54-33.75L19.54-33.75L19.54-33.75Q17.51-33.75 15.45-32.64L15.45-32.64L15.45-32.64Q9.25-29.35 9.25-18.30L9.25-18.30L9.25-18.30Q9.28-11.44 12.45-7.22L12.45-7.22L12.45-7.22Q15.61-3.01 21.25-3.01L21.25-3.01L21.25-3.01Q26.08-3.01 29.43-6.20L29.43-6.20L29.43-6.20Q31.51-8.17 32.09-8.17L32.09-8.17L32.09-8.17Q33.20-8.17 33.20-6.57L33.20-6.57L33.20-6.57Q33.20-5.75 32.17-4.01L32.17-4.01L32.17-4.01Q31.14-2.27 29.87-1.56L29.87-1.56L29.87-1.56Q26.31 0.42 20.62 0.42L20.62 0.42L19.70 0.42L19.70 0.42Q16.51 0.42 13.24-0.74L13.24-0.74L13.24-0.74Q6.62-3.08 3.96-10.02L3.96-10.02L3.96-10.02Q2.58-13.63 2.58-17.92L2.58-17.92L2.58-17.92Q2.58-22.20 3.96-25.79L3.96-25.79L3.96-25.79Q6.72-33.06 13.34-35.67L13.34-35.67L13.34-35.67Q16.69-36.99 20.28-36.99ZM54.05-15.82L54.05-15.82L54.05-14.84L54.05-14.84Q54.05-13.18 53.08-12.96L53.08-12.96L53.08-12.96Q52.10-12.74 45.54-12.74L45.54-12.74L44.93-12.74L44.32-12.71L43.35-12.71L42.95-12.68L41.77-12.68L41.58-12.66L40.79-12.66L40.21-12.63L38.89-12.63L38.89-12.63Q37.97-12.63 37.97-13.58L37.97-13.58L37.97-14.58L37.97-14.58Q37.97-16.24 39.05-16.48L39.05-16.48L39.05-16.48Q39.74-16.64 46.49-16.64L46.49-16.64L51.60-16.74L52.95-16.74L52.95-16.74Q54.05-16.74 54.05-15.82ZM71.01-31.67L71.01-31.67L70.74-31.67L70.74-31.67Q68.24-31.67 66.54-29.50L66.54-29.50L66.54-29.50Q64.84-27.34 64.84-23.76L64.84-23.76L64.84-22.68L64.84-22.68Q64.84-18.91 66.67-16.73L66.67-16.73L66.67-16.73Q68.50-14.55 70.90-14.55L70.90-14.55L71.64-14.55L71.64-14.55Q74.49-14.55 76.39-16.80L76.39-16.80L76.39-16.80Q77.47-18.06 77.47-21.46L77.47-21.46L77.44-21.73L77.41-22.49L77.36-23.52L77.36-23.52Q77.36-26.82 75.23-29.53L75.23-29.53L75.23-29.53Q73.54-31.67 71.01-31.67ZM75.96-10.23L75.96-10.23L75.96-10.23Q75.96-11.18 75.17-11.76L75.17-11.76L75.17-11.76Q74.41-12.34 73.25-12.34L73.25-12.34L73.25-12.34Q73.20-12.34 73.14-12.34L73.14-12.34L73.14-12.34Q71.90-12.31 71.32-12.31L71.32-12.31L70.72-12.26L70.72-12.26Q70.29-12.23 68.79-12.23L68.79-12.23L68.79-12.23Q67.29-12.23 65.22-13.14L65.22-13.14L65.22-13.14Q63.15-14.05 61.67-15.69L61.67-15.69L61.67-15.69Q59.09-18.51 59.09-22.78L59.09-22.78L59.09-22.78Q59.09-28.05 62.44-31.30L62.44-31.30L62.44-31.30Q65.79-34.54 71.17-34.54L71.17-34.54L71.17-34.54Q77.36-34.54 80.76-29.90L80.76-29.90L80.76-29.90Q83.58-26.08 83.58-19.09L83.58-19.09L83.58-19.09Q83.58-10.10 78.55-4.46L78.55-4.46L78.55-4.46Q76.49-2.14 73.10-0.55L73.10-0.55L73.10-0.55Q69.71 1.03 66.18 1.03L66.18 1.03L66.18 1.03Q64.28 1.03 63.06 0.49L63.06 0.49L63.06 0.49Q61.83-0.05 61.83-1.05L61.83-1.05L61.83-1.05Q61.83-2.06 63.20-2.43L63.20-2.43L63.20-2.43Q63.99-2.64 66.50-2.64L66.50-2.64L66.50-2.64Q70.16-2.64 72.54-4.64L72.54-4.64L72.54-4.64Q75.96-7.54 75.96-10.23ZM95.40-13.21L95.40-13.21L95.40-11.68L95.40-11.68Q95.40-7.94 97.10-5.09L97.10-5.09L97.10-5.09Q98.80-2.24 101.86-2.24L101.86-2.24L102.09-2.24L102.09-2.24Q104.63-2.24 106.33-4.40L106.33-4.40L106.33-4.40Q108.03-6.57 108.03-10.13L108.03-10.13L108.03-11.21L108.03-11.21Q108.03-15.06 106.22-17.19L106.22-17.19L106.22-17.19Q104.41-19.33 101.99-19.33L101.99-19.33L101.25-19.33L101.25-19.33Q98.53-19.33 96.97-17.63L96.97-17.63L96.97-17.63Q95.40-15.93 95.40-13.21ZM99.46-21.52L99.46-21.52Q102.30-21.67 103.79-21.67L103.79-21.67L103.79-21.67Q105.28-21.67 107.26-20.94L107.26-20.94L107.26-20.94Q109.27-20.14 110.74-18.72L110.74-18.72L110.74-18.72Q113.80-15.77 113.80-11.02L113.80-11.02L113.80-10.34L113.80-10.34Q113.80-8.52 112.96-6.38L112.96-6.38L112.96-6.38Q111.32-2.19 106.79-0.29L106.79-0.29L106.79-0.29Q104.63 0.61 102.25 0.61L102.25 0.61L101.57 0.61L101.57 0.61Q96.27 0.61 92.84-3.22L92.84-3.22L92.84-3.22Q91.28-4.96 90.28-7.79L90.28-7.79L90.28-7.79Q89.28-10.63 89.28-13.63L89.28-13.63L89.28-15.06L89.28-15.06Q89.28-18.77 90.48-22.54L90.48-22.54L90.48-22.54Q91.68-26.31 94.08-29.08L94.08-29.08L94.08-29.08Q96.48-31.85 100.01-33.43L100.01-33.43L100.01-33.43Q103.46-34.99 106.23-34.99L106.23-34.99L106.31-34.99L106.31-34.99Q111.16-34.99 111.16-33.14L111.16-33.14L111.16-33.14Q111.16-31.96 110.14-31.59L110.14-31.59L110.14-31.59Q109.11-31.22 106.71-31.22L106.71-31.22L106.71-31.22Q102.83-31.22 100.85-29.66L100.85-29.66L100.85-29.66Q98.88-28.11 97.88-26.29L97.88-26.29L97.88-26.29Q96.87-24.47 96.87-23.64L96.87-23.64L96.87-23.64Q96.87-22.81 97.52-22.16L97.52-22.16L97.52-22.16Q98.17-21.52 99.46-21.52L99.46-21.52ZM125.22-18.22L125.22-18.22L125.22-16.14L125.22-16.14Q125.22-10.36 127.22-6.17L127.22-6.17L127.22-6.17Q128.01-4.54 129.30-3.44L129.30-3.44L129.30-3.44Q130.60-2.35 131.99-2.35L131.99-2.35L132.65-2.35L132.65-2.35Q134.08-2.35 135.29-3.31L135.29-3.31L135.29-3.31Q136.50-4.27 137.21-5.75L137.21-5.75L137.21-5.75Q139.11-9.73 139.11-14.42L139.11-14.42L139.17-15.21L139.17-17.67L139.17-17.67Q139.17-23.65 137.08-28.00L137.08-28.00L137.08-28.00Q136.34-29.56 135.08-30.51L135.08-30.51L135.08-30.51Q133.79-31.46 132.21-31.46L132.21-31.46L132.21-31.46Q129.04-31.46 127.13-27.78L127.13-27.78L127.13-27.78Q125.22-24.10 125.22-18.22ZM132.68 0.53L132.68 0.53L131.65 0.53L131.65 0.53Q129.25 0.53 126.98-0.63L126.98-0.63L126.98-0.63Q122.29-3.06 120.42-9.07L120.42-9.07L120.42-9.07Q119.31-12.60 119.31-16.51L119.31-16.51L119.31-17.06L119.31-17.06Q119.31-24.84 123.37-29.95L123.37-29.95L123.37-29.95Q126.85-34.30 132.47-34.30L132.47-34.30L132.47-34.30Q138.08-34.30 141.67-30.14L141.67-30.14L141.67-30.14Q143.60-27.87 144.64-24.48L144.64-24.48L144.64-24.48Q145.68-21.09 145.68-17.80L145.68-17.80L145.68-16.19L145.68-16.19Q145.68-12.97 144.65-9.70L144.65-9.70L144.65-9.70Q142.65-3.32 137.82-0.79L137.82-0.79L137.82-0.79Q135.34 0.53 132.68 0.53Z" fill="#ffe034"></path></g></g><style>text {
  font-size: 64px;
  font-family: Arial Black;
  dominant-baseline: central;
  text-anchor: middle;
}</style></svg>